<svg width="801" height="311" viewBox="0 0 801 311" fill="none" xmlns="http://www.w3.org/2000/svg">
<path d="M138.694 23.4849H115.232V139.986H138.694V23.4849Z" fill="#D30026"/>
<path d="M406.301 118.434C397.424 118.434 388.736 115.892 383.93 108.456C381.097 104.087 379.985 97.8899 379.985 89.9495V45.0378H414.821L424.411 23.4852H379.964V0H356.502V89.9285C356.502 119.484 371.381 139.966 403.698 139.966H430.329L420.739 118.413H406.301V118.434Z" fill="#D30026"/>
<path d="M306.452 24.4514C299.968 22.0357 293.232 21.0694 287.251 21.0063C277.094 21.1114 258.018 24.7035 248.092 42.832C238.166 24.7035 219.09 21.0904 208.933 21.0063C202.952 21.0694 196.216 22.0567 189.731 24.4514C173.278 30.5433 158.043 45.0587 158.043 71.3797V139.987H181.526V75.8121C181.526 57.8306 188.64 42.916 208.954 42.643C229.247 42.916 236.361 57.8306 236.361 75.8121V139.987H259.823V75.8121C259.823 57.8306 266.937 42.916 287.23 42.643C307.523 42.916 314.637 57.8306 314.637 75.8121V139.987H338.12V71.3587C338.141 45.0587 322.905 30.5433 306.452 24.4514Z" fill="#D30026"/>
<path d="M765.844 24.4515C759.36 22.0357 752.624 21.0694 746.643 21.0064C738.165 21.0904 726.748 23.4432 718.27 32.791V0H694.809V139.987H718.27V75.8121C718.27 57.8307 726.35 42.9161 746.643 42.643C766.936 42.9161 774.071 57.8307 774.071 75.8121V139.987H797.533V71.3588C797.533 45.0588 782.297 30.5433 765.844 24.4515Z" fill="#D30026"/>
<path d="M491.941 21.0063C455.93 21.0063 429.992 46.5501 429.992 81.7359C429.992 116.922 455.93 142.465 491.941 142.465C514.837 142.465 535.15 132.13 545.832 115.535L528.582 102.868C523.965 110.158 517.271 115.157 509.632 117.972C504.092 120.01 498.09 120.808 491.941 120.808C473.012 120.808 457.609 108.477 453.811 90.4746H552.673V81.7149C552.673 46.5501 527.931 21.0063 491.941 21.0063ZM491.941 42.664C510.283 42.664 523.776 53.5033 528.204 69.6782H454.65C459.54 53.4823 474.188 42.664 491.941 42.664Z" fill="#D30026"/>
<path d="M662.806 103.793C654.79 114.653 642.87 120.808 629.439 120.808C607.803 120.808 590.448 104.948 590.448 81.7359C590.448 58.5238 607.467 42.664 628.915 42.664C641.8 42.664 652.271 47.7475 661.484 58.4398L678.335 45.962C667.045 30.9844 649.292 21.0063 628.894 21.0063C594.771 21.0063 566.986 47.1803 566.986 81.7359C566.986 116.291 595.002 142.465 629.418 142.465C650.467 142.465 668.724 132.004 680.035 116.459L681.064 114.842L663.834 102.175L662.806 103.793Z" fill="#D30026"/>
<path d="M88.0971 81.8618C84.5506 78.9209 79.6819 76.3581 73.6801 74.5306C69.9656 73.3962 65.8105 72.598 61.2776 72.0518C60.0395 71.9048 61.0258 72.0728 42.7475 69.7621C29.1908 68.0396 23.8605 63.5862 24.4481 57.1372C24.9308 51.6546 29.3587 47.4743 35.5494 45.1426C40.6699 43.21 47.0285 42.6638 52.9044 42.7268C66.8388 42.8739 79.7869 48.4406 88.0971 53.3351L98.5059 35.2486C85.0122 27.4552 68.6855 21.9305 53.7229 21.1322C24.1333 19.5568 2.32939 33.8831 0.692521 55.9819C0.167884 63.2291 2.41333 73.4382 11.626 81.0005C17.376 85.727 26.5467 89.5922 38.3615 91.1046C45.2657 91.9869 49.0221 92.47 56.8917 93.4574C70.4483 95.1799 75.5898 99.1291 75.17 106.124C74.8343 111.859 70.0286 116.606 62.9145 118.917C57.7101 120.598 52.6106 120.829 46.7347 120.766C32.1498 120.619 18.6351 114.485 10.4088 109.401L0 127.488C13.7035 135.68 30.5549 141.52 45.9372 142.339C75.5058 143.915 97.3097 129.483 98.9466 107.238C99.4713 99.9693 97.3097 89.4661 88.0971 81.8618Z" fill="#D30026"/>
<path d="M481.406 206.913H499.034V274.05C499.034 285.372 495.74 294.363 489.15 301.022C482.561 307.681 473.6 311 462.289 311C448.438 311 437.778 306.925 430.328 298.795L440.212 286.59C446.466 291.968 453.832 294.678 462.289 294.678C475.027 294.678 481.406 287.809 481.406 274.05V265.962C476.349 271.907 469.592 274.869 461.135 274.869C451.796 274.869 443.905 271.571 437.484 264.975C431.062 258.379 427.852 250.018 427.852 239.893C427.852 229.768 431.062 221.408 437.484 214.812C443.905 208.215 451.796 204.917 461.135 204.917C469.592 204.917 476.349 207.879 481.406 213.824V206.913ZM450.684 253.757C454.251 257.055 458.574 258.715 463.611 258.715C468.668 258.715 473.054 257.034 476.79 253.673C480.525 250.312 482.393 245.67 482.393 239.725C482.393 233.906 480.546 229.327 476.874 226.029C473.201 222.731 468.815 221.071 463.779 221.071C458.721 221.071 454.377 222.731 450.768 226.029C447.137 229.327 445.332 233.948 445.332 239.893C445.332 245.838 447.095 250.459 450.684 253.757Z" fill="#808083"/>
<path d="M532.485 220.441C538.865 210.547 547.973 205.59 559.85 205.59V223.403H555.569C549.421 223.403 544.027 225.294 539.41 229.096C534.794 232.898 532.485 238.423 532.485 245.67V272.894H514.857V206.913H532.485V220.441Z" fill="#808083"/>
<path d="M628.137 264.975C621.442 271.571 612.922 274.869 602.597 274.869C592.272 274.869 583.752 271.571 577.058 264.975C570.364 258.379 567.006 250.018 567.006 239.893C567.006 229.768 570.384 221.408 577.142 214.811C583.899 208.215 592.44 204.917 602.765 204.917C613.09 204.917 621.568 208.194 628.221 214.727C634.873 221.281 638.189 229.6 638.189 239.725C638.189 249.955 634.831 258.379 628.137 264.975ZM602.744 258.547C607.907 258.547 612.167 256.782 615.524 253.274C618.882 249.766 620.561 245.313 620.561 239.914C620.561 234.537 618.861 230.083 615.461 226.554C612.062 223.046 607.781 221.281 602.618 221.281C597.456 221.281 593.175 223.025 589.775 226.47C586.375 229.936 584.676 234.368 584.676 239.746C584.676 245.25 586.375 249.745 589.775 253.274C593.133 256.782 597.477 258.547 602.744 258.547Z" fill="#808083"/>
<path d="M696.192 242.54V206.913H713.652V242.54C713.652 252.77 710.42 260.732 703.935 266.466C697.451 272.18 689.812 275.037 681.019 275.037C672.226 275.037 664.588 272.18 658.103 266.466C651.618 260.753 648.387 252.77 648.387 242.54V206.913H665.847V242.54C665.847 247.497 667.358 251.363 670.38 254.178C673.401 256.971 676.948 258.379 680.998 258.379C685.069 258.379 688.595 256.971 691.617 254.178C694.681 251.363 696.192 247.497 696.192 242.54Z" fill="#808083"/>
<path d="M767.376 204.938C776.715 204.938 784.606 208.236 791.027 214.832C797.449 221.429 800.659 229.789 800.659 239.914C800.659 250.039 797.449 258.4 791.027 264.996C784.606 271.592 776.715 274.89 767.376 274.89C758.919 274.89 752.099 271.823 746.937 265.647V309.193H729.477V206.913H746.937V214.181C752.099 208.005 758.919 204.938 767.376 204.938ZM751.637 253.757C755.31 257.055 759.675 258.715 764.732 258.715C769.79 258.715 774.134 257.055 777.743 253.757C781.374 250.459 783.179 245.838 783.179 239.893C783.179 233.948 781.395 229.327 777.827 226.029C774.26 222.731 769.937 221.071 764.9 221.071C759.843 221.071 755.457 222.752 751.721 226.092C747.986 229.453 746.118 234.095 746.118 240.04C746.118 245.901 747.965 250.459 751.637 253.757Z" fill="#808083"/>
</svg>
